PathFileType	4	(X/Y/Z)	./resultDataOpenSim/trcMotMarkerGrf/sub10/qtm-13-01.trc
DataRate	CameraRate	NumFrames	NumMarkers	Units	OrigDataRate	OrigDataStartFrame	OrigNumFrames
250.000000	250.000000	13	24	m	250.000000	389	444
Frame#	Time	L.Toe.Tip			R.Toe.Tip			L.Ankle.Lat			R.Ankle.Lat			L.Ankle.Med			R.Ankle.Med			L.Heel			R.Heel			L.Knee.Lat			R.Knee.Lat			L.Knee.Med			R.Knee.Med			L.Thigh.Upper			R.Thigh.Upper			L.ASIS			R.ASIS			V.Sacral			L.Acromium			R.Acromium			C7			L.Elbow			R.Elbow			L.Wrist.Lat			R.Wrist.Lat
		X1	Y1	Z1	X2	Y2	Z2	X3	Y3	Z3	X4	Y4	Z4	X5	Y5	Z5	X6	Y6	Z6	X7	Y7	Z7	X8	Y8	Z8	X9	Y9	Z9	X10	Y10	Z10	X11	Y11	Z11	X12	Y12	Z12	X13	Y13	Z13	X14	Y14	Z14	X15	Y15	Z15	X16	Y16	Z16	X17	Y17	Z17	X18	Y18	Z18	X19	Y19	Z19	X20	Y20	Z20	X21	Y21	Z21	X22	Y22	Z22	X23	Y23	Z23	X24	Y24	Z24

389	1.552	1.6142897	0.12139432	-0.078067576	0.896468	0.038421943	0.092244611	1.4881299	0.088312081	-0.12012087	0.76108133	0.087308216	0.1269713	1.485175	0.1107705	-0.038555502	0.79533639	0.10753149	0.045673039	1.4427788	0.029739641	-0.08545261	0.70971296	0.076618233	0.076722995	1.3447985	0.45018726	-0.12762274	0.95454533	0.4437948	0.16468735	1.3505927	0.4234553	-0.0084761614	0.99134556	0.43538055	0.040945119	1.2156323	0.81572433	-0.15843331	1.0584843	0.84415571	0.20180046	1.2442086	0.92175444	-0.068223767	1.1643923	0.92634674	0.16767805	1.0202421	0.93093925	-0.026642512	1.1594252	1.404593	-0.10670383	1.1172551	1.3840083	0.20236125	1.0660045	1.4219051	0.034297038	0.96987055	1.1343324	-0.22121917	1.0473098	1.0462114	0.31700353	1.0717222	0.92205449	-0.2998255	1.2749538	0.96506309	0.39224345
390	1.556	1.6238032	0.12193151	-0.077222493	0.8967248	0.038445168	0.092292972	1.4979252	0.087986395	-0.11933806	0.76224378	0.089118716	0.12741623	1.4943332	0.11032286	-0.037771017	0.79667738	0.10887424	0.046068763	1.4529378	0.029079086	-0.084653693	0.71063962	0.079154504	0.077151817	1.3529577	0.44953262	-0.12724688	0.95973283	0.44322599	0.16479077	1.3579924	0.42266311	-0.00804722	0.99687743	0.43464446	0.041240016	1.2238689	0.81433153	-0.15821742	1.0652203	0.84302489	0.20121007	1.2516884	0.92067183	-0.067973261	1.1714935	0.92493236	0.16757902	1.0276966	0.92961323	-0.027126436	1.1652504	1.403284	-0.10719203	1.1239309	1.3826548	0.20203076	1.0721345	1.420427	0.034047431	0.97517512	1.1329605	-0.22089892	1.0551691	1.0440116	0.31700988	1.0764552	0.92007386	-0.29832008	1.2851429	0.96322577	0.38606683
391	1.56	1.6327024	0.1219388	-0.076447585	0.89698613	0.038455778	0.092366155	1.5070103	0.087354451	-0.11851327	0.76345221	0.091013982	0.12792352	1.5029456	0.10965768	-0.036987202	0.79811584	0.11030868	0.046529196	1.4623144	0.02821578	-0.083800675	0.71167506	0.081846671	0.077646678	1.3612243	0.4488491	-0.12679014	0.96514204	0.44268015	0.16499564	1.3655229	0.42195148	-0.0075781019	1.0025906	0.43386629	0.041603889	1.2321187	0.81288273	-0.15799157	1.0720286	0.84178791	0.20086117	1.2591307	0.91956505	-0.067751531	1.1785784	0.92357761	0.16746384	1.0352381	0.92835717	-0.027371649	1.1710752	1.4019831	-0.10771091	1.1306395	1.3813145	0.2016515	1.0782561	1.4189727	0.03379629	0.98055222	1.1315624	-0.22061329	1.0632206	1.0418682	0.31662178	1.0812811	0.91808601	-0.29688596	1.2951779	0.96143256	0.37993082
392	1.564	1.640962	0.12142017	-0.075673375	0.89724524	0.038452763	0.092459798	1.5153846	0.086415602	-0.11765704	0.76473726	0.092995754	0.12849646	1.5110652	0.10876222	-0.036186193	0.79964378	0.11184883	0.047074256	1.4709188	0.02712897	-0.08290617	0.71284446	0.084694128	0.078190893	1.3696053	0.44814367	-0.12624518	0.97076217	0.4421416	0.16528608	1.373189	0.42129201	-0.00707924	1.0084858	0.43303067	0.042036627	1.2403684	0.81139273	-0.15777378	1.0787192	0.84040833	0.20094665	1.2665682	0.91844643	-0.067573402	1.1857037	0.92225203	0.16733283	1.042868	0.92719145	-0.027374444	1.1768961	1.4006936	-0.10826558	1.1373999	1.3799894	0.20122617	1.0843541	1.4175567	0.033560364	0.98601165	1.1301412	-0.22036331	1.0714647	1.0398044	0.31581484	1.0861894	0.91608999	-0.29551987	1.3049855	0.95971616	0.37383404
393	1.568	1.6485635	0.12040795	-0.074862661	0.89750679	0.038440358	0.092561393	1.5230627	0.085180646	-0.1167861	0.76616984	0.095076172	0.12914845	1.5186758	0.1075996	-0.035354934	0.80128402	0.11349281	0.04773032	1.4787617	0.025808779	-0.081980561	0.71416677	0.087692676	0.078777886	1.3780923	0.44743235	-0.12562804	0.97655432	0.44157567	0.1656175	1.3809842	0.42066593	-0.0065640853	1.0145776	0.43213738	0.042522844	1.2486106	0.80989184	-0.15758767	1.0853236	0.83895751	0.20130147	1.2740458	0.91732637	-0.067456881	1.1929127	0.92093094	0.16719132	1.0505323	0.92606621	-0.027292211	1.1827132	1.3994183	-0.108856	1.1441936	1.3786864	0.20076598	1.0904323	1.4161808	0.033337029	0.99155776	1.1286988	-0.2201509	1.0797942	1.0378292	0.3147806	1.0911687	0.91408306	-0.29421353	1.3145605	0.9580877	0.36779989
394	1.572	1.655512	0.11891798	-0.074009099	0.89778052	0.038423737	0.092662585	1.5300779	0.083669159	-0.11590604	0.76779236	0.097267278	0.1298824	1.5257435	0.10615121	-0.034496233	0.80306702	0.11523015	0.048505229	1.4858142	0.024307737	-0.081061163	0.71565128	0.090842221	0.079412025	1.3866737	0.446735	-0.12495603	0.98249	0.44096212	0.16595161	1.3889172	0.42008274	-0.0060420315	1.0208855	0.43119234	0.043050318	1.2568347	0.80842345	-0.15745297	1.0921416	0.83754018	0.20153403	1.2815995	0.91620086	-0.067404243	1.2002203	0.91960746	0.16704557	1.0581792	0.92490071	-0.027300104	1.1885333	1.3981608	-0.10947831	1.1509694	1.3774146	0.20027852	1.096529	1.4148186	0.033091965	0.99718801	1.1272375	-0.21997386	1.0881259	1.0359348	0.31366686	1.0962208	0.91206734	-0.29296498	1.3239449	0.9565341	0.36186258
395	1.576	1.6618378	0.11695311	-0.073122003	0.89808159	0.03840957	0.092763495	1.5364764	0.081908453	-0.11501694	0.76958421	0.099573817	0.13067773	1.5322558	0.10442573	-0.033620495	0.80501812	0.11704722	0.049370037	1.491997	0.022783168	-0.080205538	0.71730453	0.094149292	0.080099416	1.3953376	0.44606744	-0.12423579	0.98859791	0.44030876	0.16629075	1.3970129	0.41955609	-0.0055087173	1.027424	0.43019293	0.043623449	1.2650146	0.80703583	-0.15738098	1.0994963	0.83616389	0.2014561	1.2892382	0.91506413	-0.067405895	1.2076304	0.91828329	0.16689722	1.0658242	0.92365406	-0.027420999	1.1943641	1.3969251	-0.11013093	1.1577105	1.3761679	0.19975838	1.1026851	1.4134342	0.032785276	1.0028967	1.1257573	-0.21982539	1.0964306	1.0341043	0.31251743	1.1013582	0.91005169	-0.29177983	1.3331788	0.95503571	0.35604462
396	1.58	1.6676089	0.11449233	-0.072199521	0.8984227	0.038402027	0.09287298	1.5423047	0.079932224	-0.11413225	0.77149336	0.10199289	0.13150695	1.5382313	0.10243408	-0.032737792	0.80716001	0.11893291	0.050278632	1.4972122	0.021474958	-0.079454895	0.71913995	0.097620955	0.080837115	1.4040659	0.44543408	-0.12346912	0.99493667	0.43962701	0.1666616	1.4052984	0.419069	-0.0049437918	1.0342033	0.42912366	0.044251367	1.2731151	0.80576878	-0.1573782	1.107463	0.8347735	0.20116105	1.2969479	0.91392114	-0.067454478	1.2151428	0.91695657	0.16674049	1.0735208	0.92233769	-0.027529092	1.2002138	1.39571	-0.11081524	1.1644528	1.3749271	0.1991972	1.108903	1.4120129	0.03240519	1.0086814	1.1242547	-0.21969846	1.1047081	1.0323204	0.3113213	1.106586	0.90804391	-0.29066323	1.3422857	0.95357754	0.35035176
397	1.584	1.6729644	0.11138605	-0.071214762	0.89880265	0.038395042	0.093012255	1.5476036	0.07778458	-0.1132947	0.77349215	0.10450618	0.13235635	1.5437149	0.10018609	-0.031861131	0.8095066	0.12088686	0.051212443	1.5014047	0.020575798	-0.078819399	0.72117853	0.10125857	0.081610787	1.4128397	0.4448247	-0.12265679	1.0015329	0.43891095	0.16709045	1.4137852	0.41857919	-0.0043239659	1.0412309	0.42796627	0.044938295	1.2811104	0.80464178	-0.15745114	1.1157409	0.8333727	0.20079858	1.3047052	0.91278636	-0.067547183	1.2227488	0.91561986	0.16656807	1.0812868	0.92098247	-0.027483081	1.2060901	1.3945098	-0.11153248	1.1712249	1.3736812	0.19859677	1.1151573	1.410564	0.03196132	1.0145462	1.1227277	-0.21959159	1.1129568	1.0305698	0.31005127	1.1118979	0.9060435	-0.28961586	1.3512746	0.95215474	0.34478989
398	1.588	1.6781384	0.10725225	-0.070147622	0.8992122	0.038374493	0.093212815	1.5524236	0.075544	-0.11258568	0.77557991	0.10708029	0.13321204	1.5487759	0.09773874	-0.031012876	0.81206565	0.12291283	0.052187844	1.5046131	0.020136568	-0.078322808	0.72344129	0.10505658	0.082404206	1.4216488	0.44421458	-0.12180482	1.008368	0.43814288	0.16759955	1.4224437	0.41804367	-0.0036416972	1.0485118	0.42670864	0.045686529	1.2889937	0.80365317	-0.15760833	1.1239021	0.83201845	0.20044658	1.3124788	0.91167731	-0.067680327	1.230438	0.91426966	0.16638045	1.0890863	0.91961089	-0.02726898	1.2119984	1.3933187	-0.11228189	1.1780027	1.3724367	0.19796403	1.1214247	1.4091042	0.031461366	1.0204946	1.1211807	-0.21950571	1.1211615	1.0288405	0.30868045	1.1172876	0.9040446	-0.28863392	1.3601412	0.95077443	0.33937971
399	1.592	1.6833869	0.10159555	-0.069040922	0.8996522	0.03833436	0.093483718	1.5568503	0.073355599	-0.11210704	0.77777772	0.10970125	0.13405936	1.5535074	0.095251797	-0.030223368	0.81485142	0.12500583	0.053227799	1.50695	0.020172803	-0.078061165	0.72594865	0.10900154	0.083209506	1.4304891	0.44357855	-0.12094131	1.0154173	0.43730725	0.16819406	1.431196	0.41743013	-0.0029135564	1.0560535	0.42534284	0.046498093	1.2967716	0.8027894	-0.15786588	1.1317991	0.83072579	0.20011482	1.3202247	0.91061004	-0.067846052	1.2382121	0.91291129	0.16618572	1.0968593	0.91821945	-0.027018873	1.2179451	1.3921344	-0.113063	1.184748	1.3712057	0.19730474	1.1276912	1.4076505	0.030909217	1.0265223	1.1196187	-0.21943862	1.1293078	1.0271148	0.30719419	1.1227543	0.90204338	-0.2877114	1.3688732	0.94944878	0.33414908
400	1.596	1.6887634	0.094255197	-0.067998675	0.9001425	0.03829067	0.093773809	1.5609876	0.071416273	-0.11190701	0.78017576	0.11240901	0.13492329	1.5580018	0.092962304	-0.029517703	0.81788914	0.12715205	0.054342284	1.5085785	0.020755132	-0.078132034	0.72872949	0.11307668	0.084025749	1.4393456	0.44292265	-0.12011736	1.0226957	0.43640133	0.16885438	1.4399576	0.41673292	-0.0021734654	1.0638652	0.42386106	0.047373248	1.304456	0.80203748	-0.15825272	1.1395767	0.82944777	0.19977971	1.3278923	0.90959853	-0.068036444	1.246076	0.91154961	0.16598813	1.1045494	0.9167772	-0.026875618	1.2239316	1.3909668	-0.11388339	1.1914669	1.3699938	0.19662778	1.133948	1.4062215	0.030309661	1.0326222	1.1180418	-0.21938609	1.137405	1.0253739	0.30560042	1.1283014	0.90004135	-0.28684609	1.3774686	0.94818054	0.32911565
401	1.6	1.693954	0.085851779	-0.0670968	0.90071022	0.038267147	0.094014023	1.5648916	0.069875841	-0.11190452	0.78292897	0.11525856	0.13585899	1.5623029	0.091064425	-0.028898409	0.82120875	0.12933802	0.055527898	1.5097499	0.021871083	-0.078474317	0.73182569	0.11727599	0.084850533	1.4481885	0.44231222	-0.11937525	1.0302567	0.43543708	0.16955575	1.4486878	0.41599509	-0.0014583477	1.0719537	0.42225559	0.04831071	1.3120651	0.80139539	-0.15879447	1.1474243	0.82813263	0.19942106	1.3354401	0.90865769	-0.068254945	1.2540211	0.91018222	0.16577797	1.1121018	0.91525636	-0.026908926	1.2299477	1.3898454	-0.11476027	1.1982039	1.3688095	0.19594605	1.1401877	1.4048393	0.029664112	1.0387974	1.1164465	-0.21934638	1.1455116	1.0236278	0.30394824	1.1339374	0.89804206	-0.28604325	1.3859622	0.94695478	0.32427503
